{"title":"The.Past.[Le.Passe].2013.BRRip.XviD.AC3.HORiZON-ArtSubs","uid":9038206,"size":2147805237,"categoryP":"video","categoryS":"movies","magnet":"?xt=urn:btih:fd34c0b4264ccd57f8f566bc4cbb90e7b1750848&amp;dn=The.Past.%5BLe.Passe%5D.2013.BRRip.XviD.AC3.HORiZON-ArtSubs&amp;tr=udp%3A%2F%2Ftracker.openbittorrent.com%3A80&amp;tr=udp%3A%2F%2Fopen.demonii.com%3A1337&amp;tr=udp%3A%2F%2Ftracker.coppersurfer.tk%3A6969&amp;tr=udp%3A%2F%2Fexodus.desync.com%3A6969","seeders":6,"leechers":0,"uploader":"lletaif","files":2,"time":1381556104,"description":"Title:\nLe Passe Aka The Past\n\nCountry:\nFrance, 2013\n\nLanguage:\nFrench\n\nSubtitle:\nFrench\n\nImdb: &lt;a href=&quot;\nhttp://www.imdb.com/title/tt2404461&quot; rel=&quot;nofollow&quot; target=&quot;_NEW&quot;&gt;\nhttp://www.imdb.com/title/tt2404461&lt;/a&gt;\n\nTrivia:\nOfficial submission of Iran to the Oscars 2014 best foreign language film category. \n\nOfficial Selection Cannes Film Festival 2013\n\n\n\nMedia Info:\n\nGeneral\nComplete name                            : The.Past.[Le.Passe].2013.BRRip.XviD.AC3.HORiZON-ArtSubs\nFormat                                   : AVI\nFormat/Info                              : Audio Video Interleave\nFormat profile                           : OpenDML\nFile size                                : 2.00 GiB\nDuration                                 : 2h 10mn\nOverall bit rate                         : 2 196 Kbps\nWriting application                      : Lavf54.63.104\n\nVideo\nID                                       : 0\nFormat                                   : xvid\nCodec ID                                 : xvid\nDuration                                 : 2h 10mn\nBit rate                                 : 1 865 Kbps\nWidth                                    : 1 280 pixels\nHeight                                   : 688 pixels\nDisplay aspect ratio                     : 1.85:1\nFrame rate                               : 23.976 fps\nBits/(Pixel*Frame)                       : 0.088\nStream size                              : 1.70 GiB (85%)\n\nAudio\nID                                       : 1\nFormat                                   : AC-3\nFormat/Info                              : Audio Coding 3\nCodec ID                                 : 00001000-0000-0020-8000-00AA00389B71\nDuration                                 : 2h 10mn\nBit rate                                 : 320 Kbps\nChannel count                            : 6 channels\nChannel positions                        : Front: L C R, Back: L R, LFE\nSampling rate                            : 48.0 KHz\nBit depth                                : 16 bits\nCompression mode                         : Lossy\nStream size                              : 298 MiB (15%)\nInterleave, duration                     : 32 ms (0.77 video frame)\n\n","torrent":{"xt":"urn:btih:fd34c0b4264ccd57f8f566bc4cbb90e7b1750848","amp;dn":"The.Past.%5BLe.Passe%5D.2013.BRRip.XviD.AC3.HORiZON-ArtSubs","amp;tr":["udp%3A%2F%2Ftracker.openbittorrent.com%3A80","udp%3A%2F%2Fopen.demonii.com%3A1337","udp%3A%2F%2Ftracker.coppersurfer.tk%3A6969","udp%3A%2F%2Fexodus.desync.com%3A6969"],"infoHash":"fd34c0b4264ccd57f8f566bc4cbb90e7b1750848","infoHashBuffer":{"type":"Buffer","data":[253,52,192,180,38,76,205,87,248,245,102,188,76,187,144,231,177,117,8,72]},"announce":[],"urlList":[]}}